<?xml version="1.0" encoding="UTF-8" standalone="no"?>
<svg
   xmlns:sketch="http://www.bohemiancoding.com/sketch/ns"
   xmlns:dc="http://purl.org/dc/elements/1.1/"
   xmlns:cc="http://creativecommons.org/ns#"
   xmlns:rdf="http://www.w3.org/1999/02/22-rdf-syntax-ns#"
   xmlns:svg="http://www.w3.org/2000/svg"
   xmlns="http://www.w3.org/2000/svg"
   xmlns:sodipodi="http://sodipodi.sourceforge.net/DTD/sodipodi-0.dtd"
   xmlns:inkscape="http://www.inkscape.org/namespaces/inkscape"
   width="40"
   height="40"
   viewBox="0 0 40 40"
   version="1.1"
   id="svg14"
   sodipodi:docname="logo-monkey-white.svg"
   inkscape:version="0.92.4 (5da689c313, 2019-01-14)">
  <metadata
     id="metadata18">
    <rdf:RDF>
      <cc:Work
         rdf:about="">
        <dc:format>image/svg+xml</dc:format>
        <dc:type
           rdf:resource="http://purl.org/dc/dcmitype/StillImage" />
        <dc:title>logo-full-white</dc:title>
      </cc:Work>
    </rdf:RDF>
  </metadata>
  <sodipodi:namedview
     pagecolor="#ffffff"
     bordercolor="#666666"
     borderopacity="1"
     objecttolerance="10"
     gridtolerance="10"
     guidetolerance="10"
     inkscape:pageopacity="0"
     inkscape:pageshadow="2"
     inkscape:window-width="640"
     inkscape:window-height="480"
     id="namedview16"
     showgrid="false"
     showguides="false"
     inkscape:zoom="2.5581395"
     inkscape:cx="64.5"
     inkscape:cy="20"
     inkscape:window-x="0"
     inkscape:window-y="1604"
     inkscape:window-maximized="0"
     inkscape:current-layer="logo-full-white" />
  <!-- Generator: Sketch 3.5.2 (25235) - http://www.bohemiancoding.com/sketch -->
  <title
     id="title2">logo-full-white</title>
  <desc
     id="desc4">Created with Sketch.</desc>
  <defs
     id="defs6" />
  <g
     id="Page-1"
     sketch:type="MSPage"
     style="fill:none;fill-rule:evenodd;stroke:none;stroke-width:1">
    <g
       id="logo-full-white"
       sketch:type="MSLayerGroup"
       style="fill:#ffffff">
      <path
         d="m 27.044192,19.852717 c -0.82575,-1.02398 -1.75354,-1.926906 -2.730795,-2.634651 v 0 c 0.04135,-0.07114 0.06726,-0.14405 0.07657,-0.218339 3.820221,-0.811 6.731746,-2.755829 7.663675,-5.958533 0.745785,0.935528 1.902515,1.536192 3.201215,1.536192 2.249387,0 4.072875,-1.801948 4.072875,-4.0247637 0,-2.2228155 -1.823488,-4.0247634 -4.072875,-4.0247634 -1.469189,0 -2.756687,0.7687216 -3.473073,1.9213434 v 0 C 30.175794,3.2120364 25.461883,0 19.896721,0 14.33156,0 9.6176491,3.2120366 8.0116592,6.4492026 v 0 C 7.2952737,5.2965806 6.0077757,4.5278589 4.5385867,4.5278589 c -2.2493871,0 -4.07287545,1.8019479 -4.07287545,4.0247634 0,2.2228157 1.82348835,4.0247637 4.07287545,4.0247637 1.2986995,0 2.4554294,-0.600664 3.201214,-1.536192 0.9038266,3.106126 3.6696593,5.029096 7.3205853,5.882069 v 0 c -1.36e-4,0.0048 -2.04e-4,0.0095 -2.04e-4,0.01428 0,0.180552 0.09803,0.353699 0.277815,0.514178 -0.862766,0.668584 -1.681596,1.486514 -2.419043,2.400993 v 0 C 12.107567,19.466372 9.574587,18.505846 6.3579537,19.68831 c -3.9276254,1.443711 -4.8119753,5.378851 -4.8119753,5.378851 -0.040719,0.195612 -0.062048,0.397903 -0.062048,0.605283 0,1.659203 1.3663554,3.003996 3.052001,3.003996 1.6856456,0 3.2982076,-1.344793 3.2982076,-3.003996 0,-1.58382 -0.9952941,-2.798029 -2.3510094,-3.050114 0,0 1.0879201,-2.042095 4.021803,-1.80911 1.7820244,0.141521 2.0534664,0.687138 1.9919544,1.093716 -1.248065,2.114646 -2.0369088,4.482607 -2.0369088,6.639138 0,2.935172 1.8032338,4.393616 4.0530868,5.118047 -0.236044,0.516351 -0.434144,1.085693 -0.626604,1.638828 -0.690379,1.984165 -0.208373,3.947596 1.076591,4.385445 1.284964,0.43785 2.886297,-0.815687 3.576676,-2.799852 0.295189,-0.84838 0.603645,-1.73489 0.678184,-2.533793 v 0 c 0.635152,0.02126 1.233337,0.02344 1.763661,0.02344 0.482977,0 1.022239,-0.0018 1.594451,-0.01819 v 0 c 0.0754,0.797535 0.383148,1.682019 0.67769,2.528541 0.69038,1.984165 2.291712,3.237702 3.576676,2.799852 1.284964,-0.437849 1.766971,-2.40128 1.076591,-4.385445 -0.186689,-0.53655 -0.378685,-1.08835 -0.605473,-1.592242 2.31851,-0.70779 4.20166,-2.165125 4.20166,-5.164633 0,-2.156531 -0.788845,-4.524493 -2.03691,-6.639139 -0.06151,-0.406577 0.209931,-0.952194 1.991955,-1.093715 2.933883,-0.232985 4.021803,1.80911 4.021803,1.80911 -1.355715,0.252085 -2.351009,1.466294 -2.351009,3.050114 0,1.659203 1.612562,3.003996 3.298207,3.003996 1.685646,0 3.052001,-1.344793 3.052001,-3.003996 0,-0.20738 -0.02133,-0.409671 -0.06205,-0.605283 0,0 -0.88435,-3.93514 -4.811975,-5.378851 -3.216633,-1.182463 -5.749613,-0.221939 -6.561,0.164407 z"
         id="grok"
         sketch:type="MSShapeGroup"
         inkscape:connector-curvature="0" />
    </g>
  </g>
</svg>
